<svg xmlns="http://www.w3.org/2000/svg" xmlns:xlink="http://www.w3.org/1999/xlink" width="114" height="28"><symbol id="a" viewBox="0 -14 114 28"><path d="M112-8.5a3.51 3.51 0 00-3.5-3.5H5.5A3.51 3.51 0 002-8.5v17A3.51 3.51 0 005.5 12h103a3.51 3.51 0 003.5-3.5v-17z" fill="#fff"/><path d="M108.5 12a3.51 3.51 0 003.5-3.5v-17a3.51 3.51 0 00-3.5-3.5H5.5A3.51 3.51 0 002-8.5v17A3.51 3.51 0 005.5 12h103m0 2H5.5A5.506 5.506 0 010 8.5v-17C0-11.533 2.467-14 5.5-14h103c3.033 0 5.5 2.467 5.5 5.5v17c0 3.033-2.467 5.5-5.5 5.5z"/><path fill="#f60" d="M81-4h4v-4h-4z"/><path d="M17 4.611h3.037V3.355h.047c.807 1.121 1.796 1.577 3.131 1.577 1.449 0 2.51-.709 2.855-1.966h.047c.482 1.303 1.635 1.966 3.129 1.966 2.098 0 3.086-1.302 3.086-3.679v-8.932h-3.178v8.59c0 1.026-.344 1.598-1.242 1.598-1.012 0-1.656-.686-1.656-2.1v-8.088h-3.18v8.59c0 1.026-.346 1.598-1.242 1.598-1.014 0-1.658-.686-1.658-2.1v-8.088H17v12.29zM34.358-1.533c0-4.271 1.06-6.533 4.882-6.465 3.637 0 4.881 2.262 4.881 6.465 0 4.271-1.059 6.533-4.881 6.466-3.638 0-4.882-2.262-4.882-6.466m3.179 0c0 2.513.137 4.317 1.703 4.317 1.291 0 1.703-1.257 1.703-4.317S40.531-5.85 39.24-5.85c-1.566 0-1.703 1.805-1.703 4.317M46.16-7.678h3.041v1.303h.045c.691-1.144 1.566-1.623 2.809-1.623 2.602 0 3.801 1.895 3.801 6.465s-1.199 6.466-3.801 6.466c-1.197 0-2.002-.479-2.67-1.462h-.046v5.162H46.16V-7.678zm3.179 6.145c0 2.672.275 4.043 1.681 4.043 1.383 0 1.658-1.371 1.658-4.043s-.275-4.043-1.658-4.043c-1.406 0-1.681 1.371-1.681 4.043M58.227 8.814h3.176V6.119h-3.176v2.695zm0-4.203h3.176V-7.678h-3.176V4.611zM64.248 8.635h3.178v-16.31h-3.178zM78.982-1.951v.71c0 3.769-.828 6.235-4.535 6.235-4.281 0-4.925-3.061-4.925-6.352 0-3.06.183-6.578 4.788-6.578 2.994 0 4.375 1.598 4.49 4.455h-2.855c-.186-1.51-.621-2.308-1.68-2.308-1.176 0-1.566 1.417-1.566 2.855v.981h6.283zM72.699-.078v.48c0 1.143.367 2.445 1.633 2.445 1.314 0 1.543-1.053 1.613-2.926h-3.246zM93.693-7.678h3.041V8.633h-3.18V3.471h-.044c-.668.982-1.475 1.462-2.671 1.462-2.601 0-3.8-1.896-3.8-6.466s1.199-6.465 3.8-6.465c1.243 0 2.118.479 2.808 1.623h.047v-1.303zm-3.476 6.145c0 2.672.275 4.043 1.656 4.043 1.404 0 1.682-1.371 1.682-4.043s-.277-4.043-1.682-4.043c-1.381 0-1.656 1.371-1.656 4.043M108.295-2.014v.709c0 3.769-.828 6.238-4.535 6.238-4.283 0-4.928-3.062-4.928-6.352 0-3.062.186-6.58 4.789-6.58 2.992 0 4.375 1.6 4.49 4.455h-2.856c-.183-1.508-.622-2.307-1.679-2.307-1.176 0-1.568 1.416-1.568 2.854v.982h6.287zm-6.287 1.875v.48c0 1.141.369 2.442 1.637 2.442 1.312 0 1.541-1.05 1.61-2.923h-3.247z"/><path d="M5.601-12A3.6 3.6 0 002-8.399V8.399A3.6 3.6 0 005.601 12H14v-24H5.601z" fill="#f60"/></symbol><use xlink:href="#a" width="114" height="28" y="-14" transform="matrix(1 0 0 -1 0 14)" overflow="visible"/></svg>